<?xml version="1.0" encoding="UTF-8"?>
<svg id="Layer_2" data-name="Layer 2" xmlns="http://www.w3.org/2000/svg" xmlns:xlink="http://www.w3.org/1999/xlink" viewBox="0 0 599.09 599.09">
  <defs>
    <style>
      .cls-1 {
        fill: #fff;
      }

      .cls-2 {
        fill: #9e8808;
      }

      .cls-3 {
        stroke: url(#linear-gradient);
        stroke-width: 31px;
      }

      .cls-3, .cls-4 {
        fill: none;
        stroke-linecap: round;
        stroke-linejoin: round;
      }

      .cls-4 {
        stroke: url(#linear-gradient-2);
        stroke-width: 13px;
      }
    </style>
    <linearGradient id="linear-gradient" x1="435.69" y1="63.73" x2="163.4" y2="535.36" gradientUnits="userSpaceOnUse">
      <stop offset="0" stop-color="#4c4637"/>
      <stop offset="1" stop-color="#29261d"/>
    </linearGradient>
    <linearGradient id="linear-gradient-2" x1="299.55" y1="125.88" x2="299.55" y2="471.1" gradientUnits="userSpaceOnUse">
      <stop offset="0" stop-color="#5f5000"/>
      <stop offset="1" stop-color="#443600"/>
    </linearGradient>
  </defs>
  <g id="Layer_1-2" data-name="Layer 1">
    <g>
      <circle class="cls-1" cx="299.55" cy="299.55" r="299.55"/>
      <circle class="cls-3" cx="299.55" cy="299.55" r="256.75"/>
      <path class="cls-2" d="M527.76,377.11c-11.34-57.89-28.88-146.77-39.48-192.87l-20.22,5.68-6.48-31.64-21.33,5.49-5.65-31.39c-58.91,9.47-120.95,67.58-135.05,101.37-14.1-33.79-76.14-91.9-135.05-101.37l-5.65,31.39-21.33-5.49-6.48,31.64-20.23-5.68c-10.59,46.1-28.14,134.98-39.47,192.87-5.87,29.98-10.07,51.64-10.79,54.74,21.78-10.97,60.25-24.3,107.92-22.6,26.46.95,44.84,7.02,59.44,13.56,34.46,15.43,36.98,39.88,71.64,41.8,34.66-1.92,37.18-26.37,71.63-41.8,14.61-6.54,32.98-12.61,59.44-13.56,47.68-1.7,86.15,11.63,107.93,22.6-.72-3.1-4.92-24.76-10.79-54.74Z"/>
      <path class="cls-4" d="M299.55,464.6c-34.66-1.92-37.18-26.36-71.63-41.8-14.6-6.54-32.98-12.61-59.44-13.56-47.68-1.71-86.14,11.63-107.93,22.59,2.09-9.09,34.18-177.63,50.27-247.61l20.22,5.68M299.55,233.75c-14.1-33.8-76.14-91.9-135.05-101.37l-33.46,185.75c122.41,29.36,168.51,146.47,168.51,146.47v-230.85ZM275.92,256.06c-25.26-28.5-57.16-44.43-86.67-53.44M272.7,299.55c-25.26-28.5-59.72-46.1-89.22-55.11M269.45,352.14c-31.16-35.62-72.53-55.52-98.06-61.83M299.55,464.6s-66.96-118.04-232.86-59.47M299.55,464.6s-91.79-135.93-228.21-87.5M158.84,163.77l-21.33-5.49-37.78,184.44s100.91-25.49,199.81,121.88M299.55,464.6c34.66-1.92,37.18-26.36,71.63-41.8,14.6-6.54,32.98-12.61,59.44-13.56,47.68-1.71,86.14,11.63,107.93,22.59-2.09-9.09-34.18-177.63-50.27-247.61l-20.22,5.68M299.55,464.6s46.11-117.11,168.51-146.47l-33.46-185.75c-58.91,9.47-120.95,67.57-135.05,101.37v230.85ZM409.83,202.62c-29.51,9.01-61.4,24.94-86.67,53.44M415.61,244.43c-29.51,9.01-63.96,26.61-89.22,55.11M427.7,290.31c-25.53,6.31-66.9,26.21-98.06,61.83M532.41,405.13c-165.9-58.57-232.86,59.47-232.86,59.47M527.76,377.1c-136.42-48.43-228.21,87.5-228.21,87.5M299.55,464.6c98.9-147.38,199.81-121.88,199.81-121.88l-37.78-184.44-21.33,5.49"/>
    </g>
  </g>
</svg>