<?xml version="1.0" encoding="UTF-8"?>
<svg id="Layer_2" data-name="Layer 2" xmlns="http://www.w3.org/2000/svg" xmlns:xlink="http://www.w3.org/1999/xlink" viewBox="0 0 551.8 592.95">
  <defs>
    <style>
      .cls-1 {
        fill: #e2d3e8;
      }

      .cls-2 {
        fill: #f6f1f8;
        stroke: #302e2f;
        stroke-width: 25px;
      }

      .cls-3 {
        fill: none;
        stroke: url(#New_Gradient_Swatch_2);
        stroke-linecap: round;
        stroke-linejoin: round;
        stroke-width: 13px;
      }

      .cls-4 {
        stroke: url(#New_Gradient_Swatch_2-4);
        stroke-width: 4px;
      }

      .cls-4, .cls-5, .cls-6 {
        fill: #fff;
      }

      .cls-5 {
        stroke: url(#New_Gradient_Swatch_2-2);
        stroke-width: 5px;
      }

      .cls-6 {
        stroke: url(#New_Gradient_Swatch_2-3);
        stroke-width: 7px;
      }
    </style>
    <linearGradient id="New_Gradient_Swatch_2" data-name="New Gradient Swatch 2" x1="275.9" y1="143.38" x2="275.9" y2="488.6" gradientUnits="userSpaceOnUse">
      <stop offset="0" stop-color="#40457a"/>
      <stop offset="1" stop-color="#411a34"/>
    </linearGradient>
    <linearGradient id="New_Gradient_Swatch_2-2" data-name="New Gradient Swatch 2" x1="181.85" y1="99.27" x2="259.16" y2="99.27" gradientTransform="translate(-12.45 34.58) rotate(-8.65)" xlink:href="#New_Gradient_Swatch_2"/>
    <linearGradient id="New_Gradient_Swatch_2-3" data-name="New Gradient Swatch 2" x1="283.39" y1="80.14" x2="381.16" y2="80.14" xlink:href="#New_Gradient_Swatch_2"/>
    <linearGradient id="New_Gradient_Swatch_2-4" data-name="New Gradient Swatch 2" x1="247.86" y1="170.42" x2="297" y2="170.42" xlink:href="#New_Gradient_Swatch_2"/>
  </defs>
  <g id="Layer_1-2" data-name="Layer 1">
    <g>
      <circle class="cls-2" cx="275.9" cy="317.05" r="263.4"/>
      <g>
        <path class="cls-1" d="M504.11,394.61c-11.34-57.89-28.88-146.77-39.48-192.87l-20.22,5.68-6.48-31.64-21.33,5.49-5.65-31.39c-58.91,9.47-120.95,67.58-135.05,101.37-14.1-33.79-76.14-91.9-135.05-101.37l-5.65,31.39-21.33-5.49-6.48,31.64-20.23-5.68c-10.59,46.1-28.14,134.98-39.47,192.87-5.87,29.98-10.07,51.64-10.79,54.74,21.78-10.97,60.25-24.3,107.92-22.6,26.46.95,44.84,7.02,59.44,13.56,34.46,15.43,36.98,39.88,71.64,41.8,34.66-1.92,37.18-26.37,71.63-41.8,14.61-6.54,32.98-12.61,59.44-13.56,47.68-1.7,86.15,11.63,107.93,22.6-.72-3.1-4.92-24.76-10.79-54.74Z"/>
        <path class="cls-3" d="M275.9,482.1c-34.66-1.92-37.18-26.36-71.63-41.8-14.6-6.54-32.98-12.61-59.44-13.56-47.68-1.71-86.14,11.63-107.93,22.59,2.09-9.09,34.18-177.63,50.27-247.61l20.22,5.68M275.9,251.25c-14.1-33.8-76.14-91.9-135.05-101.37l-33.46,185.75c122.41,29.36,168.51,146.47,168.51,146.47v-230.85ZM252.28,273.56c-25.26-28.5-57.16-44.43-86.67-53.44M249.06,317.05c-25.26-28.5-59.72-46.1-89.22-55.11M245.81,369.64c-31.16-35.62-72.53-55.52-98.06-61.83M275.9,482.1s-66.96-118.04-232.86-59.47M275.9,482.1s-91.79-135.93-228.21-87.5M135.2,181.27l-21.33-5.49-37.78,184.44s100.91-25.49,199.81,121.88M275.9,482.1c34.66-1.92,37.18-26.36,71.63-41.8,14.6-6.54,32.98-12.61,59.44-13.56,47.68-1.71,86.14,11.63,107.93,22.59-2.09-9.09-34.18-177.63-50.27-247.61l-20.22,5.68M275.9,482.1s46.11-117.11,168.51-146.47l-33.46-185.75c-58.91,9.47-120.95,67.57-135.05,101.37v230.85ZM386.19,220.12c-29.51,9.01-61.4,24.94-86.67,53.44M391.97,261.93c-29.51,9.01-63.96,26.61-89.22,55.11M404.06,307.81c-25.53,6.31-66.9,26.21-98.06,61.83M508.76,422.63c-165.9-58.57-232.86,59.47-232.86,59.47M504.11,394.6c-136.42-48.43-228.21,87.5-228.21,87.5M275.9,482.1c98.9-147.38,199.81-121.88,199.81-121.88l-37.78-184.44-21.33,5.49"/>
      </g>
      <path class="cls-5" d="M208.46,40.26c4.17-.68,5.75,37,28.93,48.34,8.68,4.25,18.78,4.02,19.18,7.87.36,3.51-7.9,4.83-13.98,10.52-16.39,15.31-4.61,50.65-8.92,51.7-4.06.99-7.92-31.96-30.38-42.13-8.31-3.76-16.87-3.36-18.01-8.05-1.12-4.63,6.42-8.45,12.1-15.03,17.04-19.74,7.11-52.58,11.08-53.23Z"/>
      <path class="cls-6" d="M351.88,3.53c5.29,1.5-13.62,46.7,7.4,72.81,7.87,9.78,19.88,15.07,18.23,19.83-1.51,4.33-11.96,1.34-22.25,4.67-27.71,8.98-33.32,57.05-38.98,55.91-5.32-1.07,8.29-41.96-12.53-66.3-7.71-9.01-18-13.25-16.75-19.39,1.23-6.07,12.21-6.4,22.51-11.01,30.93-13.84,37.33-57.95,42.37-56.52Z"/>
      <path class="cls-4" d="M270.59,132.7c2.64-.03.08,23.37,13.32,32.55,4.96,3.43,11.21,4.24,11.1,6.66-.11,2.2-5.33,2.24-9.62,5.18-11.55,7.91-7.6,30.82-10.36,31.07-2.6.23-1.89-20.47-14.79-28.85-4.78-3.1-10.1-3.66-10.36-6.66-.26-2.97,4.75-4.61,8.88-8.14,12.37-10.58,9.32-31.78,11.84-31.81Z"/>
    </g>
  </g>
</svg>